# xmcd CD database file
#
# Track frame offsets:
#	150
#	18600
#	31130
#	41811
#	64249
#	83303
#	97154
#	113238
#	137570
#	149675
#
# Disc length: 2221 seconds
#
# Revision: 0
# Processed by: cddbd v1.5.2PL0 Copyright (c) Steve Scherf et al.
# Submitted via: CDex 1.51
#
DISCID=8908ab0a
DTITLE=Junior Wells - Vanguard Visionaries
DYEAR=2007
DGENRE=Blues
TTITLE0=Help Me (A Tribute To Sonny Boy Williamson)
TTITLE1=It Hurts Me Too (When Things Go Wrong)
TTITLE2=Messin' With The Kid
TTITLE3=Vietcong Blues
TTITLE4=It's My Life, Baby
TTITLE5=Everything's Going To Be Alright
TTITLE6=Shake It Baby
TTITLE7=Tobacco Road
TTITLE8=Mystery Train
TTITLE9=All Night Long
EXTD=YEAR: 2007
EXTT0=
EXTT1=
EXTT2=
EXTT3=
EXTT4=
EXTT5=
EXTT6=
EXTT7=
EXTT8=
EXTT9=
PLAYORDER=
